<?xml version="1.0" standalone="no"?>
<!DOCTYPE svg PUBLIC "-//W3C//DTD SVG 20010904//EN"
 "http://www.w3.org/TR/2001/REC-SVG-20010904/DTD/svg10.dtd">
<svg version="1.0" xmlns="http://www.w3.org/2000/svg"
 width="720.000000pt" height="899.000000pt" viewBox="0 0 720.000000 899.000000"
 preserveAspectRatio="xMidYMid meet">

<g transform="translate(0.000000,899.000000) scale(0.100000,-0.100000)"
fill="dodgerblue" stroke="none">
<path d="M956 8279 c455 -1467 601 -1745 1344 -2554 295 -321 363 -396 359
-399 -2 -1 -101 -52 -219 -113 -118 -61 -307 -160 -420 -220 -412 -222 -712
-361 -952 -444 l-97 -33 -7 -55 c-13 -105 3 -488 25 -590 11 -51 22 -96 25
-98 8 -8 335 15 513 37 195 23 371 53 808 136 648 123 817 147 1065 148 l165
1 3 -25 c18 -154 91 -493 298 -1380 317 -1357 406 -1819 417 -2168 l2 -72 501
479 c284 272 524 509 553 548 102 136 117 221 96 556 -48 762 -133 1448 -270
2189 -19 103 -35 203 -35 223 0 47 21 94 56 126 22 21 556 393 1086 758 21 14
37 29 38 32 0 3 -42 9 -92 12 -420 28 -945 69 -998 77 -99 16 -179 60 -243
133 -128 146 -324 445 -407 621 -27 56 -76 160 -110 231 -128 271 -313 525
-581 796 -237 240 -478 439 -934 769 -93 67 -192 142 -220 165 -98 83 -241
138 -520 199 -260 57 -706 124 -1061 160 -82 9 -177 18 -211 22 l-61 7 84
-274z"/>
</g>
</svg>
